<?xml version="1.0" encoding="UTF-8"?>
<svg id="Capa_1" xmlns="http://www.w3.org/2000/svg" version="1.1" viewBox="0 0 1000 500">
  <!-- Generator: Adobe Illustrator 30.2.1, SVG Export Plug-In . SVG Version: 2.1.1 Build 1)  -->
  <defs>
    <style>
      .st0, .st1 {
        fill: #fff;
      }

      .st1, .st2 {
        fill-rule: evenodd;
      }

      .st3, .st2 {
        fill: #1265ff;
      }

      .st4 {
        display: none;
      }
    </style>
  </defs>
  <g id="Blue" class="st4">
    <g id="Txt">
      <path class="st3" d="M60.81,411.1v51.57h-20.63v-126.08h72.43v20.33h-51.91v34.31h43.58v19.83h-43.44v.05h-.03Z"/>
      <path class="st3" d="M198.29,385.4v75.29h-17.85l-1.42-10.05c-4.73,7.16-14.85,12.05-25.27,12.05-17.99,0-28.57-11.73-28.57-30.18v-47.09h19.25v40.53c0,14.32,5.85,20.13,16.59,20.13,12.16,0,17.99-6.86,17.99-21.18v-39.47h19.28v-.02h0Z"/>
      <path class="st3" d="M234.02,462.71v-61.32h-15.01v-15.95h15.01v-24.1h19.25v24.1h15.17v15.95h-15.17v61.32h-19.25Z"/>
      <path class="st3" d="M362.21,385.44v75.32h-17.85l-1.42-10.07c-4.73,7.16-14.85,12.05-25.27,12.05-17.99,0-28.57-11.75-28.57-30.2v-47.11h19.25v40.55c0,14.34,5.85,20.13,16.59,20.13,12.16,0,17.99-6.86,17.99-21.2v-39.49h19.25v.05h.02v-.03Z"/>
      <path class="st3" d="M431.79,403.32h-7.11c-13.91,0-22.58,7.27-22.58,22.15v37.15h-19.25v-76.35h18.15l1.1,11.15c3.33-7.6,10.74-12.69,21.16-12.69,2.69,0,5.37.3,8.54,1.08v17.49h0v.02h-.01Z"/>
      <path class="st3" d="M447.63,424.2c0-22.86,15.95-38.65,38.85-38.65s38.21,14.6,38.21,37.31v5.46l-58.75.14c1.42,12.83,8.67,19.32,21.48,19.32,10.58,0,17.53-3.83,19.74-10.76h17.85c-3.3,15.93-17.53,25.52-37.89,25.52-23.22,0-39.47-15.79-39.47-38.35h-.02ZM466.42,417h39.15c0-10.03-7.41-16.66-18.96-16.66s-18.31,5.76-20.22,16.66h.03Z"/>
      <path class="st3" d="M575.18,336.54c18.06,0,30.04,11.68,32.11,31.23h-7.39c-1.47-15.1-10.35-23.68-24.72-23.68-16.27,0-27.08,9.94-27.08,25.24,0,11.68,6.06,19.41,18.06,22.99l18.63,5.51c15.83,4.64,24.28,15.63,24.28,31.23,0,20.42-13.61,33.48-34.63,33.48-19.69,0-33-11.86-34.63-30.89h7.55c.6,13.91,11.41,23.18,27.08,23.18,16.73,0,27.52-9.94,27.52-25.59,0-12.03-6.06-20.08-18.5-23.68l-18.2-5.32c-15.83-4.64-24.28-15.1-24.28-30.89,0-19.92,13.47-32.79,34.19-32.79h0v-.02h.01Z"/>
      <path class="st3" d="M630.07,387.23h5.87l1.1,16.55c5.71-12.55,16.64-18.38,29.79-18.38,22.35,0,35.02,16.84,35.02,38.6s-12.67,38.6-35.02,38.6c-13.47,0-23.94-5.83-29.47-17.76v47.02h-7.3v-104.62h.01ZM666.93,457.22c18.04,0,28.32-13.61,28.32-32.11s-10.28-32.11-28.32-32.11-28.48,13.45-28.48,32.11,10.28,32.11,28.48,32.11h0Z"/>
      <path class="st3" d="M719.66,441.28c0-13.42,10.74-21.96,28.43-23.34l26.05-1.97v-2.75c0-16.48-10.1-21.2-22.1-21.2-14.04,0-22.42,6.4-22.42,17.07h-7.27c0-14.34,12-23.48,29.86-23.48,16.27,0,29.21,7.62,29.21,26.53v48.49h-5.85l-1.42-13.72c-5.21,9.91-15.79,15.56-28.89,15.56-16.27,0-25.59-8.7-25.59-21.2h0v.02h-.01ZM774.12,425.72v-3.97l-25.43,1.97c-15.31,1.22-21.8,8.38-21.8,17.4,0,10.07,7.89,15.1,19.25,15.1,17.85,0,27.95-12.51,27.95-30.5h.03Z"/>
      <path class="st3" d="M838.08,385.63c16.27,0,28.43,9.32,31.9,23.2h-7.41c-3.17-10.83-13.26-16.94-24.49-16.94-16.89,0-28.89,12.51-28.89,32.36s11.06,31.9,27.95,31.9c12.16,0,22.26-6.72,25.75-16.64h7.41c-4.11,13.88-17.05,23.04-33.16,23.04-20.84,0-35.07-15.26-35.07-38.16s14.21-38.78,36.01-38.78h0v.02h0Z"/>
      <path class="st3" d="M891.13,424.27c0-22.88,14.37-38.58,35.52-38.58,19.74,0,33.32,13.72,33.32,33.71v4.89h-61.59c.64,19.97,11.36,31.88,29.21,31.88,13.42,0,21.94-5.65,24.95-16.48h7.41c-4.43,15.1-15.33,22.88-32.38,22.88-21.94,0-36.49-15.26-36.49-38.28h.05v-.02h0ZM898.57,418.49h54c0-15.86-10.26-26.39-25.89-26.39s-26.37,10.37-28.11,26.39Z"/>
    </g>
    <g id="simbolo1">
      <path class="st3" d="M517.27,53.9c-4.89,1.81-20.58,6.77-28.64,11.36-17.37,9.87-52.71,34.24-75.75,100.81-14.3,41.31-13.52,102.12,19.07,120.57,7.21,4.08,19.02,8.61,22.97,10.28-16.82-17.03-33.76-26.07-30.2-91.82.85-15.83,15.01-83.07,63.15-129.04,5.65-5.37,27.4-20.19,29.37-22.17h.03Z"/>
      <path class="st2" d="M497.38,72.7c19.25-14.6,45.42-21.25,69.72-1.45,11.68,9.52,43.97,52,4.66,142.83-2.98,6.88-37.15,79.61-93.79,81.86-30.98,1.24-62.21-35.96-48.97-105.47,1.08-5.6,12.12-75.13,68.39-117.77h0ZM497.4,66.18c20.42-15.74,49.96-27.13,75.27-5.83,12.3,10.33,43.35,58.11,1.79,153.8-3.14,7.25-38.46,84.38-97.21,87.92-32.24,1.95-64.92-36.12-51.06-110.02,1.12-5.99,11.45-79.79,71.23-125.87h-.02Z"/>
      <path class="st2" d="M545.36,138.88c.71,28.04-1.72,54.87-22.37,57.07-15.65,1.65-27.29-14.04-29.19-18.73,15.74-31.51,18.98-35.82,27.77-41.38,7.64-4.84,19.09-.83,23.8,3.03h-.01ZM543.55,58.42c0,5.51,1.08,48.42,1.08,53.1-16.25-7.73-33.87-14.3-53.22,1.61-5.99,4.93-15.79,19.74-29.17,49.16-3.74-2.71-15.12-9.96-15.12-9.96l-12.71,23.11s6.45,4.52,12.92,9.48c.76.57.94,1.12.41,2.2-.53,1.06-25.38,49.71-25.38,49.71l17.53,48.47s36.63-74.31,39.47-79.72c17.03,20.77,51.4,33.23,71.28,16.25,6.84-5.85,27.63-18.68,27.63-80.5,0-14.34-1.97-67.58-1.97-67.58l-31.58-18.68s-1.17-2.11-1.17,3.4h0v-.05Z"/>
    </g>
    <g id="Capa_2" class="st4">
      <path class="st3" d="M948.66,333.15c5.7,5.7,5.7,14.92,0,20.62-5.7,5.7-14.92,5.7-20.62,0s-5.7-14.92,0-20.62c5.7-5.7,14.92-5.7,20.62,0ZM938.35,325.36c-9.99,0-18.09,8.1-18.09,18.09s8.1,18.09,18.09,18.09,18.09-8.1,18.09-18.09-8.1-18.09-18.09-18.09ZM942.32,351.37h4.03l-4.35-6.3c5.28-1.73,3.97-9.89-1.52-9.89h-8.19v16.1h3.34v-5.97h2.43l4.26,6.06h0ZM935.76,338.55h4.72c2,0,2,3.41,0,3.41h-4.72v-3.41Z"/>
    </g>
  </g>
  <g id="Capa_5">
    <g id="Txt1">
      <path class="st0" d="M60.84,411.11v51.57h-20.63v-126.08h72.43v20.33h-51.91v34.31h43.58v19.83h-43.44v.05h-.03Z"/>
      <path class="st0" d="M198.32,385.41v75.29h-17.85l-1.42-10.05c-4.73,7.16-14.85,12.05-25.27,12.05-17.99,0-28.57-11.73-28.57-30.18v-47.09h19.25v40.53c0,14.32,5.85,20.13,16.59,20.13,12.16,0,17.99-6.86,17.99-21.18v-39.47h19.28v-.02h0Z"/>
      <path class="st0" d="M234.05,462.72v-61.32h-15.01v-15.95h15.01v-24.1h19.25v24.1h15.17v15.95h-15.17v61.32h-19.25Z"/>
      <path class="st0" d="M362.24,385.45v75.32h-17.85l-1.42-10.07c-4.73,7.16-14.85,12.05-25.27,12.05-17.99,0-28.57-11.75-28.57-30.2v-47.11h19.25v40.55c0,14.34,5.85,20.13,16.59,20.13,12.16,0,17.99-6.86,17.99-21.2v-39.49h19.25v.05h.02v-.03Z"/>
      <path class="st0" d="M431.82,403.33h-7.11c-13.91,0-22.58,7.27-22.58,22.15v37.15h-19.25v-76.35h18.15l1.1,11.15c3.33-7.6,10.74-12.69,21.16-12.69,2.69,0,5.37.3,8.54,1.08v17.49h0v.02h-.01Z"/>
      <path class="st0" d="M447.66,424.21c0-22.86,15.95-38.65,38.85-38.65s38.21,14.6,38.21,37.31v5.46l-58.75.14c1.42,12.83,8.67,19.32,21.48,19.32,10.58,0,17.53-3.83,19.74-10.76h17.85c-3.3,15.93-17.53,25.52-37.89,25.52-23.22,0-39.47-15.79-39.47-38.35h-.02ZM466.45,417.01h39.15c0-10.03-7.41-16.66-18.96-16.66s-18.31,5.76-20.22,16.66h.03Z"/>
      <path class="st0" d="M575.21,336.55c18.06,0,30.04,11.68,32.11,31.23h-7.39c-1.47-15.1-10.35-23.68-24.72-23.68-16.27,0-27.08,9.94-27.08,25.24,0,11.68,6.06,19.41,18.06,22.99l18.63,5.51c15.83,4.64,24.28,15.63,24.28,31.23,0,20.42-13.61,33.48-34.63,33.48-19.69,0-33-11.86-34.63-30.89h7.55c.6,13.91,11.41,23.18,27.08,23.18,16.73,0,27.52-9.94,27.52-25.59,0-12.03-6.06-20.08-18.5-23.68l-18.2-5.32c-15.83-4.64-24.28-15.1-24.28-30.89,0-19.92,13.47-32.79,34.19-32.79h0v-.02h.01Z"/>
      <path class="st0" d="M630.1,387.24h5.87l1.1,16.55c5.71-12.55,16.64-18.38,29.79-18.38,22.35,0,35.02,16.84,35.02,38.6s-12.67,38.6-35.02,38.6c-13.47,0-23.94-5.83-29.47-17.76v47.02h-7.3v-104.62h.01ZM666.95,457.24c18.04,0,28.32-13.61,28.32-32.11s-10.28-32.11-28.32-32.11-28.48,13.45-28.48,32.11,10.28,32.11,28.48,32.11Z"/>
      <path class="st0" d="M719.69,441.29c0-13.42,10.74-21.96,28.43-23.34l26.05-1.97v-2.75c0-16.48-10.1-21.2-22.1-21.2-14.04,0-22.42,6.4-22.42,17.07h-7.27c0-14.34,12-23.48,29.86-23.48,16.27,0,29.21,7.62,29.21,26.53v48.49h-5.85l-1.42-13.72c-5.21,9.91-15.79,15.56-28.89,15.56-16.27,0-25.59-8.7-25.59-21.2h0v.02h-.01ZM774.15,425.73v-3.97l-25.43,1.97c-15.31,1.22-21.8,8.38-21.8,17.4,0,10.07,7.89,15.1,19.25,15.1,17.85,0,27.95-12.51,27.95-30.5h.03Z"/>
      <path class="st0" d="M838.1,385.64c16.27,0,28.43,9.32,31.9,23.2h-7.41c-3.17-10.83-13.26-16.94-24.49-16.94-16.89,0-28.89,12.51-28.89,32.36s11.06,31.9,27.95,31.9c12.16,0,22.26-6.72,25.75-16.64h7.41c-4.11,13.88-17.05,23.04-33.16,23.04-20.84,0-35.07-15.26-35.07-38.16s14.21-38.78,36.01-38.78h0v.02h0Z"/>
      <path class="st0" d="M891.16,424.28c0-22.88,14.37-38.58,35.52-38.58,19.74,0,33.32,13.72,33.32,33.71v4.89h-61.59c.64,19.97,11.36,31.88,29.21,31.88,13.42,0,21.94-5.65,24.95-16.48h7.41c-4.43,15.1-15.33,22.88-32.38,22.88-21.94,0-36.49-15.26-36.49-38.28h.05v-.02h0ZM898.6,418.5h54c0-15.86-10.26-26.39-25.89-26.39s-26.37,10.37-28.11,26.39Z"/>
    </g>
    <g id="simbolo11">
      <path class="st0" d="M517.3,53.92c-4.89,1.81-20.58,6.77-28.64,11.36-17.37,9.87-52.71,34.24-75.75,100.81-14.3,41.31-13.52,102.12,19.07,120.57,7.21,4.08,19.02,8.61,22.97,10.28-16.82-17.03-33.76-26.07-30.2-91.82.85-15.83,15.01-83.07,63.15-129.04,5.65-5.37,27.4-20.19,29.37-22.17h.03Z"/>
      <path class="st1" d="M497.4,72.71c19.25-14.6,45.42-21.25,69.72-1.45,11.68,9.52,43.97,52,4.66,142.83-2.98,6.88-37.15,79.61-93.79,81.86-30.98,1.24-62.21-35.96-48.97-105.47,1.08-5.6,12.12-75.13,68.39-117.77h0ZM497.43,66.19c20.42-15.74,49.96-27.13,75.27-5.83,12.3,10.33,43.35,58.11,1.79,153.8-3.14,7.25-38.46,84.38-97.21,87.92-32.24,1.95-64.92-36.12-51.06-110.02,1.12-5.99,11.45-79.79,71.23-125.87h-.02Z"/>
      <path class="st1" d="M545.39,138.9c.71,28.04-1.72,54.87-22.37,57.07-15.65,1.65-27.29-14.04-29.19-18.73,15.74-31.51,18.98-35.82,27.77-41.38,7.64-4.84,19.09-.83,23.8,3.03h-.01ZM543.58,58.44c0,5.51,1.08,48.42,1.08,53.1-16.25-7.73-33.87-14.3-53.22,1.61-5.99,4.93-15.79,19.74-29.17,49.16-3.74-2.71-15.12-9.96-15.12-9.96l-12.71,23.11s6.45,4.52,12.92,9.48c.76.57.94,1.12.41,2.2-.53,1.06-25.38,49.71-25.38,49.71l17.53,48.47s36.63-74.31,39.47-79.72c17.03,20.77,51.4,33.23,71.28,16.25,6.84-5.85,27.63-18.68,27.63-80.5,0-14.34-1.97-67.58-1.97-67.58l-31.58-18.68s-1.17-2.11-1.17,3.4h0v-.05Z"/>
    </g>
  </g>
  <g id="White" class="st4">
    <g id="Txt2">
      <path class="st0" d="M60.88,411.07v51.57h-20.63v-126.08h72.43v20.33h-51.91v34.31h43.58v19.83h-43.44v.05h-.03Z"/>
      <path class="st0" d="M198.36,385.37v75.29h-17.85l-1.42-10.05c-4.73,7.16-14.85,12.05-25.27,12.05-17.99,0-28.57-11.73-28.57-30.18v-47.09h19.25v40.53c0,14.32,5.85,20.13,16.59,20.13,12.16,0,17.99-6.86,17.99-21.18v-39.47h19.28v-.02h0Z"/>
      <path class="st0" d="M234.09,462.68v-61.32h-15.01v-15.95h15.01v-24.1h19.25v24.1h15.17v15.95h-15.17v61.32h-19.25Z"/>
      <path class="st0" d="M362.29,385.41v75.32h-17.85l-1.42-10.07c-4.73,7.16-14.85,12.05-25.27,12.05-17.99,0-28.57-11.75-28.57-30.2v-47.11h19.25v40.55c0,14.34,5.85,20.13,16.59,20.13,12.16,0,17.99-6.86,17.99-21.2v-39.49h19.25v.05h.02v-.03Z"/>
      <path class="st0" d="M431.87,403.29h-7.11c-13.91,0-22.58,7.27-22.58,22.15v37.15h-19.25v-76.35h18.15l1.1,11.15c3.33-7.6,10.74-12.69,21.16-12.69,2.69,0,5.37.3,8.54,1.08v17.49h0v.02h-.01Z"/>
      <path class="st0" d="M447.7,424.17c0-22.86,15.95-38.65,38.85-38.65s38.21,14.6,38.21,37.31v5.46l-58.75.14c1.42,12.83,8.67,19.32,21.48,19.32,10.58,0,17.53-3.83,19.74-10.76h17.85c-3.3,15.93-17.53,25.52-37.89,25.52-23.22,0-39.47-15.79-39.47-38.35h-.02ZM466.49,416.97h39.15c0-10.03-7.41-16.66-18.96-16.66s-18.31,5.76-20.22,16.66h.03Z"/>
      <path class="st0" d="M575.25,336.51c18.06,0,30.04,11.68,32.11,31.23h-7.39c-1.47-15.1-10.35-23.68-24.72-23.68-16.27,0-27.08,9.94-27.08,25.24,0,11.68,6.06,19.41,18.06,22.99l18.63,5.51c15.83,4.64,24.28,15.63,24.28,31.23,0,20.42-13.61,33.48-34.63,33.48-19.69,0-33-11.86-34.63-30.89h7.55c.6,13.91,11.41,23.18,27.08,23.18,16.73,0,27.52-9.94,27.52-25.59,0-12.03-6.06-20.08-18.5-23.68l-18.2-5.32c-15.83-4.64-24.28-15.1-24.28-30.89,0-19.92,13.47-32.79,34.19-32.79h0v-.02h.01Z"/>
      <path class="st0" d="M630.14,387.2h5.87l1.1,16.55c5.71-12.55,16.64-18.38,29.79-18.38,22.35,0,35.02,16.84,35.02,38.6s-12.67,38.6-35.02,38.6c-13.47,0-23.94-5.83-29.47-17.76v47.02h-7.3v-104.62h.01ZM667,457.2c18.04,0,28.32-13.61,28.32-32.11s-10.28-32.11-28.32-32.11-28.48,13.45-28.48,32.11,10.28,32.11,28.48,32.11Z"/>
      <path class="st0" d="M719.73,441.25c0-13.42,10.74-21.96,28.43-23.34l26.05-1.97v-2.75c0-16.48-10.1-21.2-22.1-21.2-14.04,0-22.42,6.4-22.42,17.07h-7.27c0-14.34,12-23.48,29.86-23.48,16.27,0,29.21,7.62,29.21,26.53v48.49h-5.85l-1.42-13.72c-5.21,9.91-15.79,15.56-28.89,15.56-16.27,0-25.59-8.7-25.59-21.2h0v.02h-.01ZM774.19,425.69v-3.97l-25.43,1.97c-15.31,1.22-21.8,8.38-21.8,17.4,0,10.07,7.89,15.1,19.25,15.1,17.85,0,27.95-12.51,27.95-30.5h.03Z"/>
      <path class="st0" d="M838.15,385.6c16.27,0,28.43,9.32,31.9,23.2h-7.41c-3.17-10.83-13.26-16.94-24.49-16.94-16.89,0-28.89,12.51-28.89,32.36s11.06,31.9,27.95,31.9c12.16,0,22.26-6.72,25.75-16.64h7.41c-4.11,13.88-17.05,23.04-33.16,23.04-20.84,0-35.07-15.26-35.07-38.16s14.21-38.78,36.01-38.78h0v.02h0Z"/>
      <path class="st0" d="M891.2,424.24c0-22.88,14.37-38.58,35.52-38.58,19.74,0,33.32,13.72,33.32,33.71v4.89h-61.59c.64,19.97,11.36,31.88,29.21,31.88,13.42,0,21.94-5.65,24.95-16.48h7.41c-4.43,15.1-15.33,22.88-32.38,22.88-21.94,0-36.49-15.26-36.49-38.28h.05v-.02ZM898.64,418.46h54c0-15.86-10.26-26.39-25.89-26.39s-26.37,10.37-28.11,26.39h0Z"/>
    </g>
    <g id="simbolo12">
      <path class="st0" d="M517.34,53.87c-4.89,1.81-20.58,6.77-28.64,11.36-17.37,9.87-52.71,34.24-75.75,100.81-14.3,41.31-13.52,102.12,19.07,120.57,7.21,4.08,19.02,8.61,22.97,10.28-16.82-17.03-33.76-26.07-30.2-91.82.85-15.83,15.01-83.07,63.15-129.04,5.65-5.37,27.4-20.19,29.37-22.17h.03Z"/>
      <path class="st1" d="M497.45,72.67c19.25-14.6,45.42-21.25,69.72-1.45,11.68,9.52,43.97,52,4.66,142.83-2.98,6.88-37.15,79.61-93.79,81.86-30.98,1.24-62.21-35.96-48.97-105.47,1.08-5.6,12.12-75.13,68.39-117.77h-.01ZM497.47,66.15c20.42-15.74,49.96-27.13,75.27-5.83,12.3,10.33,43.35,58.11,1.79,153.8-3.14,7.25-38.46,84.38-97.21,87.92-32.24,1.95-64.92-36.12-51.06-110.02,1.12-5.99,11.45-79.79,71.23-125.87h-.02Z"/>
      <path class="st1" d="M545.43,138.85c.71,28.04-1.72,54.87-22.37,57.07-15.65,1.65-27.29-14.04-29.19-18.73,15.74-31.51,18.98-35.82,27.77-41.38,7.64-4.84,19.09-.83,23.8,3.03h-.01ZM543.62,58.39c0,5.51,1.08,48.42,1.08,53.1-16.25-7.73-33.87-14.3-53.22,1.61-5.99,4.93-15.79,19.74-29.17,49.16-3.74-2.71-15.12-9.96-15.12-9.96l-12.71,23.11s6.45,4.52,12.92,9.48c.76.57.94,1.12.41,2.2-.53,1.06-25.38,49.71-25.38,49.71l17.53,48.47s36.63-74.31,39.47-79.72c17.03,20.77,51.4,33.23,71.28,16.25,6.84-5.85,27.63-18.68,27.63-80.5,0-14.34-1.97-67.58-1.97-67.58l-31.58-18.68s-1.17-2.11-1.17,3.4h0v-.05Z"/>
    </g>
  </g>
</svg>