<?xml version="1.0" encoding="UTF-8"?>
<svg id="Capa_1" xmlns="http://www.w3.org/2000/svg" version="1.1" viewBox="0 0 1000 500">
  <!-- Generator: Adobe Illustrator 30.2.1, SVG Export Plug-In . SVG Version: 2.1.1 Build 1)  -->
  <defs>
    <style>
      .st0, .st1 {
        fill: #1265ff;
      }

      .st1, .st2 {
        fill-rule: evenodd;
      }

      .st3 {
        display: none;
      }
    </style>
  </defs>
  <g id="Blue" class="st3">
    <g id="Txt">
      <path class="st0" d="M60.81,411.1v51.57h-20.63v-126.08h72.43v20.33h-51.91v34.31h43.58v19.83h-43.44v.05h-.03Z"/>
      <path class="st0" d="M198.29,385.4v75.29h-17.85l-1.42-10.05c-4.73,7.16-14.85,12.05-25.27,12.05-17.99,0-28.57-11.73-28.57-30.18v-47.09h19.25v40.53c0,14.32,5.85,20.13,16.59,20.13,12.16,0,17.99-6.86,17.99-21.18v-39.47h19.28v-.02h0Z"/>
      <path class="st0" d="M234.02,462.71v-61.32h-15.01v-15.95h15.01v-24.1h19.25v24.1h15.17v15.95h-15.17v61.32h-19.25Z"/>
      <path class="st0" d="M362.21,385.44v75.32h-17.85l-1.42-10.07c-4.73,7.16-14.85,12.05-25.27,12.05-17.99,0-28.57-11.75-28.57-30.2v-47.11h19.25v40.55c0,14.34,5.85,20.13,16.59,20.13,12.16,0,17.99-6.86,17.99-21.2v-39.49h19.25v.05h.02v-.03Z"/>
      <path class="st0" d="M431.79,403.32h-7.11c-13.91,0-22.58,7.27-22.58,22.15v37.15h-19.25v-76.35h18.15l1.1,11.15c3.33-7.6,10.74-12.69,21.16-12.69,2.69,0,5.37.3,8.54,1.08v17.49h0v.02h-.01Z"/>
      <path class="st0" d="M447.63,424.2c0-22.86,15.95-38.65,38.85-38.65s38.21,14.6,38.21,37.31v5.46l-58.75.14c1.42,12.83,8.67,19.32,21.48,19.32,10.58,0,17.53-3.83,19.74-10.76h17.85c-3.3,15.93-17.53,25.52-37.89,25.52-23.22,0-39.47-15.79-39.47-38.35h-.02ZM466.42,417h39.15c0-10.03-7.41-16.66-18.96-16.66s-18.31,5.76-20.22,16.66h.03Z"/>
      <path class="st0" d="M575.18,336.54c18.06,0,30.04,11.68,32.11,31.23h-7.39c-1.47-15.1-10.35-23.68-24.72-23.68-16.27,0-27.08,9.94-27.08,25.24,0,11.68,6.06,19.41,18.06,22.99l18.63,5.51c15.83,4.64,24.28,15.63,24.28,31.23,0,20.42-13.61,33.48-34.63,33.48-19.69,0-33-11.86-34.63-30.89h7.55c.6,13.91,11.41,23.18,27.08,23.18,16.73,0,27.52-9.94,27.52-25.59,0-12.03-6.06-20.08-18.5-23.68l-18.2-5.32c-15.83-4.64-24.28-15.1-24.28-30.89,0-19.92,13.47-32.79,34.19-32.79h0v-.02h.01Z"/>
      <path class="st0" d="M630.07,387.23h5.87l1.1,16.55c5.71-12.55,16.64-18.38,29.79-18.38,22.35,0,35.02,16.84,35.02,38.6s-12.67,38.6-35.02,38.6c-13.47,0-23.94-5.83-29.47-17.76v47.02h-7.3v-104.62h.01ZM666.93,457.22c18.04,0,28.32-13.61,28.32-32.11s-10.28-32.11-28.32-32.11-28.48,13.45-28.48,32.11,10.28,32.11,28.48,32.11h0Z"/>
      <path class="st0" d="M719.66,441.28c0-13.42,10.74-21.96,28.43-23.34l26.05-1.97v-2.75c0-16.48-10.1-21.2-22.1-21.2-14.04,0-22.42,6.4-22.42,17.07h-7.27c0-14.34,12-23.48,29.86-23.48,16.27,0,29.21,7.62,29.21,26.53v48.49h-5.85l-1.42-13.72c-5.21,9.91-15.79,15.56-28.89,15.56-16.27,0-25.59-8.7-25.59-21.2h0v.02h-.01ZM774.12,425.72v-3.97l-25.43,1.97c-15.31,1.22-21.8,8.38-21.8,17.4,0,10.07,7.89,15.1,19.25,15.1,17.85,0,27.95-12.51,27.95-30.5h.03Z"/>
      <path class="st0" d="M838.08,385.63c16.27,0,28.43,9.32,31.9,23.2h-7.41c-3.17-10.83-13.26-16.94-24.49-16.94-16.89,0-28.89,12.51-28.89,32.36s11.06,31.9,27.95,31.9c12.16,0,22.26-6.72,25.75-16.64h7.41c-4.11,13.88-17.05,23.04-33.16,23.04-20.84,0-35.07-15.26-35.07-38.16s14.21-38.78,36.01-38.78h0v.02h0Z"/>
      <path class="st0" d="M891.13,424.27c0-22.88,14.37-38.58,35.52-38.58,19.74,0,33.32,13.72,33.32,33.71v4.89h-61.59c.64,19.97,11.36,31.88,29.21,31.88,13.42,0,21.94-5.65,24.95-16.48h7.41c-4.43,15.1-15.33,22.88-32.38,22.88-21.94,0-36.49-15.26-36.49-38.28h.05v-.02h0ZM898.57,418.49h54c0-15.86-10.26-26.39-25.89-26.39s-26.37,10.37-28.11,26.39Z"/>
    </g>
    <g id="simbolo1">
      <path class="st0" d="M517.27,53.9c-4.89,1.81-20.58,6.77-28.64,11.36-17.37,9.87-52.71,34.24-75.75,100.81-14.3,41.31-13.52,102.12,19.07,120.57,7.21,4.08,19.02,8.61,22.97,10.28-16.82-17.03-33.76-26.07-30.2-91.82.85-15.83,15.01-83.07,63.15-129.04,5.65-5.37,27.4-20.19,29.37-22.17h.03Z"/>
      <path class="st1" d="M497.38,72.7c19.25-14.6,45.42-21.25,69.72-1.45,11.68,9.52,43.97,52,4.66,142.83-2.98,6.88-37.15,79.61-93.79,81.86-30.98,1.24-62.21-35.96-48.97-105.47,1.08-5.6,12.12-75.13,68.39-117.77h0ZM497.4,66.18c20.42-15.74,49.96-27.13,75.27-5.83,12.3,10.33,43.35,58.11,1.79,153.8-3.14,7.25-38.46,84.38-97.21,87.92-32.24,1.95-64.92-36.12-51.06-110.02,1.12-5.99,11.45-79.79,71.23-125.87h-.02Z"/>
      <path class="st1" d="M545.36,138.88c.71,28.04-1.72,54.87-22.37,57.07-15.65,1.65-27.29-14.04-29.19-18.73,15.74-31.51,18.98-35.82,27.77-41.38,7.64-4.84,19.09-.83,23.8,3.03h-.01ZM543.55,58.42c0,5.51,1.08,48.42,1.08,53.1-16.25-7.73-33.87-14.3-53.22,1.61-5.99,4.93-15.79,19.74-29.17,49.16-3.74-2.71-15.12-9.96-15.12-9.96l-12.71,23.11s6.45,4.52,12.92,9.48c.76.57.94,1.12.41,2.2-.53,1.06-25.38,49.71-25.38,49.71l17.53,48.47s36.63-74.31,39.47-79.72c17.03,20.77,51.4,33.23,71.28,16.25,6.84-5.85,27.63-18.68,27.63-80.5,0-14.34-1.97-67.58-1.97-67.58l-31.58-18.68s-1.17-2.11-1.17,3.4h0v-.05Z"/>
    </g>
    <g id="Capa_2" class="st3">
      <path class="st0" d="M948.66,333.15c5.7,5.7,5.7,14.92,0,20.62-5.7,5.7-14.92,5.7-20.62,0s-5.7-14.92,0-20.62c5.7-5.7,14.92-5.7,20.62,0ZM938.35,325.36c-9.99,0-18.09,8.1-18.09,18.09s8.1,18.09,18.09,18.09,18.09-8.1,18.09-18.09-8.1-18.09-18.09-18.09ZM942.32,351.37h4.03l-4.35-6.3c5.28-1.73,3.97-9.89-1.52-9.89h-8.19v16.1h3.34v-5.97h2.43l4.26,6.06h0ZM935.76,338.55h4.72c2,0,2,3.41,0,3.41h-4.72v-3.41Z"/>
    </g>
  </g>
  <g id="Capa_5">
    <g id="Txt1">
      <path class="st0" d="M60.84,411.11v51.57h-20.63v-126.08h72.43v20.33h-51.91v34.31h43.58v19.83h-43.44v.05h-.03Z"/>
      <path class="st0" d="M198.32,385.41v75.29h-17.85l-1.42-10.05c-4.73,7.16-14.85,12.05-25.27,12.05-17.99,0-28.57-11.73-28.57-30.18v-47.09h19.25v40.53c0,14.32,5.85,20.13,16.59,20.13,12.16,0,17.99-6.86,17.99-21.18v-39.47h19.28v-.02h0Z"/>
      <path class="st0" d="M234.05,462.72v-61.32h-15.01v-15.95h15.01v-24.1h19.25v24.1h15.17v15.95h-15.17v61.32h-19.25Z"/>
      <path class="st0" d="M362.24,385.45v75.32h-17.85l-1.42-10.07c-4.73,7.16-14.85,12.05-25.27,12.05-17.99,0-28.57-11.75-28.57-30.2v-47.11h19.25v40.55c0,14.34,5.85,20.13,16.59,20.13,12.16,0,17.99-6.86,17.99-21.2v-39.49h19.25v.05h.02v-.03Z"/>
      <path class="st0" d="M431.82,403.33h-7.11c-13.91,0-22.58,7.27-22.58,22.15v37.15h-19.25v-76.35h18.15l1.1,11.15c3.33-7.6,10.74-12.69,21.16-12.69,2.69,0,5.37.3,8.54,1.08v17.49h0v.02h-.01Z"/>
      <path class="st0" d="M447.66,424.21c0-22.86,15.95-38.65,38.85-38.65s38.21,14.6,38.21,37.31v5.46l-58.75.14c1.42,12.83,8.67,19.32,21.48,19.32,10.58,0,17.53-3.83,19.74-10.76h17.85c-3.3,15.93-17.53,25.52-37.89,25.52-23.22,0-39.47-15.79-39.47-38.35h-.02ZM466.45,417.01h39.15c0-10.03-7.41-16.66-18.96-16.66s-18.31,5.76-20.22,16.66h.03Z"/>
      <path class="st0" d="M575.21,336.55c18.06,0,30.04,11.68,32.11,31.23h-7.39c-1.47-15.1-10.35-23.68-24.72-23.68-16.27,0-27.08,9.94-27.08,25.24,0,11.68,6.06,19.41,18.06,22.99l18.63,5.51c15.83,4.64,24.28,15.63,24.28,31.23,0,20.42-13.61,33.48-34.63,33.48-19.69,0-33-11.86-34.63-30.89h7.55c.6,13.91,11.41,23.18,27.08,23.18,16.73,0,27.52-9.94,27.52-25.59,0-12.03-6.06-20.08-18.5-23.68l-18.2-5.32c-15.83-4.64-24.28-15.1-24.28-30.89,0-19.92,13.47-32.79,34.19-32.79h0v-.02h.01Z"/>
      <path class="st0" d="M630.1,387.24h5.87l1.1,16.55c5.71-12.55,16.64-18.38,29.79-18.38,22.35,0,35.02,16.84,35.02,38.6s-12.67,38.6-35.02,38.6c-13.47,0-23.94-5.83-29.47-17.76v47.02h-7.3v-104.62h.01ZM666.95,457.24c18.04,0,28.32-13.61,28.32-32.11s-10.28-32.11-28.32-32.11-28.48,13.45-28.48,32.11,10.28,32.11,28.48,32.11Z"/>
      <path class="st0" d="M719.69,441.29c0-13.42,10.74-21.96,28.43-23.34l26.05-1.97v-2.75c0-16.48-10.1-21.2-22.1-21.2-14.04,0-22.42,6.4-22.42,17.07h-7.27c0-14.34,12-23.48,29.86-23.48,16.27,0,29.21,7.62,29.21,26.53v48.49h-5.85l-1.42-13.72c-5.21,9.91-15.79,15.56-28.89,15.56-16.27,0-25.59-8.7-25.59-21.2h0v.02h-.01ZM774.15,425.73v-3.97l-25.43,1.97c-15.31,1.22-21.8,8.38-21.8,17.4,0,10.07,7.89,15.1,19.25,15.1,17.85,0,27.95-12.51,27.95-30.5h.03Z"/>
      <path class="st0" d="M838.1,385.64c16.27,0,28.43,9.32,31.9,23.2h-7.41c-3.17-10.83-13.26-16.94-24.49-16.94-16.89,0-28.89,12.51-28.89,32.36s11.06,31.9,27.95,31.9c12.16,0,22.26-6.72,25.75-16.64h7.41c-4.11,13.88-17.05,23.04-33.16,23.04-20.84,0-35.07-15.26-35.07-38.16s14.21-38.78,36.01-38.78h0v.02h0Z"/>
      <path class="st0" d="M891.16,424.28c0-22.88,14.37-38.58,35.52-38.58,19.74,0,33.32,13.72,33.32,33.71v4.89h-61.59c.64,19.97,11.36,31.88,29.21,31.88,13.42,0,21.94-5.65,24.95-16.48h7.41c-4.43,15.1-15.33,22.88-32.38,22.88-21.94,0-36.49-15.26-36.49-38.28h.05v-.02h0ZM898.6,418.5h54c0-15.86-10.26-26.39-25.89-26.39s-26.37,10.37-28.11,26.39Z"/>
    </g>
    <g id="simbolo11">
      <path class="st0" d="M517.3,53.92c-4.89,1.81-20.58,6.77-28.64,11.36-17.37,9.87-52.71,34.24-75.75,100.81-14.3,41.31-13.52,102.12,19.07,120.57,7.21,4.08,19.02,8.61,22.97,10.28-16.82-17.03-33.76-26.07-30.2-91.82.85-15.83,15.01-83.07,63.15-129.04,5.65-5.37,27.4-20.19,29.37-22.17h.03Z"/>
      <path class="st1" d="M497.4,72.71c19.25-14.6,45.42-21.25,69.72-1.45,11.68,9.52,43.97,52,4.66,142.83-2.98,6.88-37.15,79.61-93.79,81.86-30.98,1.24-62.21-35.96-48.97-105.47,1.08-5.6,12.12-75.13,68.39-117.77h0ZM497.43,66.19c20.42-15.74,49.96-27.13,75.27-5.83,12.3,10.33,43.35,58.11,1.79,153.8-3.14,7.25-38.46,84.38-97.21,87.92-32.24,1.95-64.92-36.12-51.06-110.02,1.12-5.99,11.45-79.79,71.23-125.87h-.02Z"/>
      <path class="st1" d="M545.39,138.9c.71,28.04-1.72,54.87-22.37,57.07-15.65,1.65-27.29-14.04-29.19-18.73,15.74-31.51,18.98-35.82,27.77-41.38,7.64-4.84,19.09-.83,23.8,3.03h-.01ZM543.58,58.44c0,5.51,1.08,48.42,1.08,53.1-16.25-7.73-33.87-14.3-53.22,1.61-5.99,4.93-15.79,19.74-29.17,49.16-3.74-2.71-15.12-9.96-15.12-9.96l-12.71,23.11s6.45,4.52,12.92,9.48c.76.57.94,1.12.41,2.2-.53,1.06-25.38,49.71-25.38,49.71l17.53,48.47s36.63-74.31,39.47-79.72c17.03,20.77,51.4,33.23,71.28,16.25,6.84-5.85,27.63-18.68,27.63-80.5,0-14.34-1.97-67.58-1.97-67.58l-31.58-18.68s-1.17-2.11-1.17,3.4h0v-.05Z"/>
    </g>
  </g>
  <g id="Black" class="st3">
    <g id="Txt2">
      <path d="M90.51,406.77v48.21c-6.44,0-12.87,0-19.29-.02v-117.87h67.71v19.01h-48.53v32.07h40.74v18.54c-13.54,0-27.05,0-40.59.02h-.02l-.02.04h0Z"/>
      <path d="M219.04,382.77v70.39h-16.69l-1.33-9.4c-4.42,6.69-13.88,11.26-23.62,11.26-16.82,0-26.71-10.96-26.71-28.21v-44.02h18v37.89c0,13.39,5.47,18.82,15.51,18.82,11.37,0,16.82-6.41,16.82-19.8v-36.9h18.02v-.02h0Z"/>
      <path d="M252.45,455.05v-57.33h-14.03v-14.91h14.03v-22.53h18v22.53h14.18v14.91h-14.18v57.33h-18Z"/>
      <path d="M372.29,382.81v70.41h-16.69l-1.33-9.42c-4.42,6.69-13.88,11.26-23.62,11.26-16.82,0-26.71-10.98-26.71-28.23v-44.05h18v37.91c0,13.41,5.47,18.82,15.51,18.82,11.37,0,16.82-6.41,16.82-19.82v-36.92h18v.04h.02,0Z"/>
      <path d="M437.34,399.52h-6.65c-13,0-21.11,6.8-21.11,20.7v34.73h-18v-71.38h16.97l1.03,10.43c3.11-7.1,10.04-11.86,19.78-11.86,2.51,0,5.02.28,7.98,1.01v16.35h0v.02h0Z"/>
      <path d="M452.15,419.05c0-21.37,14.91-36.13,36.32-36.13s35.72,13.65,35.72,34.88v5.11l-54.92.13c1.33,11.99,8.11,18.06,20.08,18.06,9.89,0,16.39-3.58,18.45-10.06h16.69c-3.09,14.89-16.39,23.86-35.42,23.86-21.71,0-36.9-14.76-36.9-35.85h-.02ZM469.72,412.31h36.6c0-9.38-6.93-15.58-17.72-15.58s-17.12,5.39-18.9,15.58h.02Z"/>
      <path d="M571.39,336.49c16.88,0,28.08,10.98,30.01,29.35h-6.91c-1.37-14.2-9.68-22.25-23.11-22.25-15.21,0-25.32,9.35-25.32,23.73,0,10.98,5.66,18.24,16.88,21.6l17.42,5.17c14.8,4.36,22.7,14.67,22.7,29.35,0,19.2-12.72,31.45-32.37,31.45-18.41,0-30.85-11.13-32.37-29.03h7.06c.56,13.07,10.66,21.78,25.32,21.78,15.64,0,25.72-9.35,25.72-24.05,0-11.31-5.66-18.88-17.29-22.25l-17.01-5c-14.8-4.36-22.7-14.2-22.7-29.03,0-18.71,12.59-30.81,31.97-30.81v-.02h0Z"/>
      <path d="M622.71,384.48h5.49l1.03,15.47c5.34-11.74,15.55-17.18,27.85-17.18,20.9,0,32.74,15.75,32.74,36.09s-11.84,36.09-32.74,36.09c-12.59,0-22.38-5.45-27.55-16.61v43.96h-6.82v-97.81h0ZM657.17,449.92c16.86,0,26.47-12.72,26.47-30.01s-9.61-30.01-26.47-30.01-26.62,12.57-26.62,30.01,9.61,30.01,26.62,30.01Z"/>
      <path d="M706.47,435.01c0-12.55,10.04-20.53,26.58-21.82l24.35-1.85v-2.57c0-15.4-9.44-19.82-20.66-19.82-13.13,0-20.96,5.99-20.96,15.96h-6.8c0-13.41,11.22-21.95,27.91-21.95,15.21,0,27.31,7.12,27.31,24.8v45.33h-5.47l-1.33-12.83c-4.87,9.27-14.76,14.55-27.01,14.55-15.21,0-23.92-8.13-23.92-19.82h0v.02h0ZM757.38,420.46v-3.71l-23.77,1.85c-14.31,1.14-20.38,7.83-20.38,16.26,0,9.42,7.38,14.12,18,14.12,16.69,0,26.13-11.69,26.13-28.51h.02Z"/>
      <path d="M817.17,382.98c15.21,0,26.58,8.71,29.82,21.69h-6.93c-2.96-10.13-12.4-15.83-22.89-15.83-15.79,0-27.01,11.69-27.01,30.25s10.34,29.82,26.13,29.82c11.37,0,20.81-6.29,24.07-15.55h6.93c-3.84,12.98-15.94,21.54-31,21.54-19.48,0-32.78-14.27-32.78-35.68s13.28-36.26,33.66-36.26h0v.02h0Z"/>
      <path d="M866.78,419.11c0-21.39,13.43-36.06,33.21-36.06,18.45,0,31.15,12.83,31.15,31.52v4.57h-57.58c.6,18.67,10.62,29.8,27.31,29.8,12.55,0,20.51-5.28,23.32-15.4h6.93c-4.14,14.12-14.33,21.39-30.27,21.39-20.51,0-34.11-14.27-34.11-35.79h.04v-.02h0ZM873.73,413.7h50.48c0-14.83-9.59-24.67-24.2-24.67s-24.65,9.7-26.28,24.67h0Z"/>
    </g>
    <g id="simbolo12">
      <path d="M538.08,73.28c-4.55,1.69-19.17,6.31-26.68,10.58-16.18,9.19-49.1,31.89-70.56,93.91-13.32,38.48-12.59,95.12,17.76,112.31,6.71,3.8,17.72,8.02,21.4,9.58-15.67-15.86-31.44-24.28-28.13-85.53.79-14.75,13.98-77.38,58.83-120.2,5.26-5,25.52-18.81,27.36-20.65,0,0,.02,0,.02,0Z"/>
      <path class="st2" d="M519.55,90.79c17.93-13.6,42.3-19.79,64.94-1.35,10.88,8.87,40.96,48.44,4.34,133.05-2.78,6.41-34.61,74.15-87.37,76.25-28.86,1.15-57.95-33.5-45.62-98.25,1-5.22,11.29-69.99,63.7-109.7h0ZM519.57,84.72c19.02-14.66,46.54-25.27,70.11-5.43,11.46,9.62,40.38,54.13,1.67,143.26-2.93,6.75-35.83,78.6-90.55,81.89-30.03,1.82-60.47-33.65-47.56-102.48,1.05-5.58,10.67-74.33,66.35-117.25h-.02,0Z"/>
      <path class="st2" d="M564.24,152.44c.66,26.12-1.6,51.11-20.84,53.16-14.58,1.54-25.42-13.08-27.19-17.44,14.66-29.35,17.68-33.37,25.87-38.54,7.12-4.51,17.79-.77,22.17,2.82h0ZM562.56,77.49c0,5.13,1,45.1,1,49.46-15.13-7.2-31.55-13.32-49.57,1.5-5.58,4.6-14.71,18.38-27.17,45.79-3.48-2.52-14.09-9.28-14.09-9.28l-11.84,21.53s6.01,4.21,12.03,8.83c.71.53.88,1.05.38,2.05-.49.98-23.64,46.3-23.64,46.3l16.33,45.15s34.12-69.22,36.77-74.26c15.86,19.35,47.88,30.95,66.4,15.13,6.37-5.45,25.74-17.4,25.74-74.99,0-13.36-1.84-62.95-1.84-62.95l-29.41-17.4s-1.09-1.97-1.09,3.16h0v-.02h0Z"/>
    </g>
    <path d="M949.04,333.49c5.7,5.7,5.7,14.92,0,20.62-5.7,5.7-14.92,5.7-20.62,0s-5.7-14.92,0-20.62c5.7-5.7,14.92-5.7,20.62,0ZM938.72,325.71c-9.99,0-18.09,8.1-18.09,18.09s8.1,18.09,18.09,18.09,18.09-8.1,18.09-18.09-8.1-18.09-18.09-18.09ZM942.69,351.72h4.03l-4.35-6.3c5.28-1.73,3.97-9.89-1.52-9.89h-8.19v16.1h3.34v-5.97h2.43l4.26,6.06h0ZM936.13,338.89h4.72c2,0,2,3.41,0,3.41h-4.72v-3.41Z"/>
  </g>
</svg>